<svg xmlns="http://www.w3.org/2000/svg" xmlns:xlink="http://www.w3.org/1999/xlink" version="1.0" id="Layer_1" x="0px" y="0px" width="100px" height="100px" viewBox="0 0 100 100" enable-background="new 0 0 100 100" xml:space="preserve">
<g>
	<path d="M53.262,54.772l-1.231-3.462c-0.433-1.221-1.592-2.042-2.887-2.042c-0.349,0-0.693,0.06-1.025,0.178   c-1.591,0.568-2.427,2.324-1.865,3.917l1.232,3.461c0.433,1.221,1.593,2.041,2.886,2.041c0.351,0,0.697-0.062,1.03-0.18   C52.992,58.119,53.826,56.365,53.262,54.772z"/>
	<path d="M77.114,75.001l-8.33-23.452c-2.655-7.475-9.765-12.496-17.69-12.496c-1.858,0-3.71,0.282-5.514,0.838   c-0.213-2.042-1.069-5.44-4.135-8.884c-1.72-1.93-4.306-4-7.044-6.192c-4.072-3.261-9.14-7.32-9.658-10.092   c-1.158-6.214,0.937-9.887,6.792-11.909l0.469-0.162l-0.899-2.59l-0.467,0.161c-7.094,2.455-9.983,7.502-8.586,15.001   c0.703,3.767,5.734,7.8,10.662,11.75c2.639,2.115,5.131,4.113,6.686,5.859c3.041,3.409,3.493,6.621,3.516,8.103   c-3.884,1.871-6.915,4.918-8.776,8.832c-2.151,4.527-2.413,9.623-0.735,14.351l8.33,23.447c2.655,7.475,9.765,12.495,17.691,12.495   c2.142,0,4.256-0.365,6.288-1.087C75.465,95.505,80.581,84.752,77.114,75.001z M59.424,97.32c-6.767,0-12.838-4.288-15.108-10.67   l-6.614-18.62l30.218-10.733l6.613,18.617c2.959,8.33-1.41,17.517-9.741,20.478C63.064,97.008,61.259,97.32,59.424,97.32z    M50.876,60.438l-14.093,5.006l-0.798-2.245c-1.433-4.033-1.209-8.385,0.628-12.254c1.841-3.869,5.077-6.789,9.111-8.222   c1.74-0.617,3.546-0.93,5.369-0.93c6.768,0,12.838,4.29,15.107,10.674l0.798,2.247l-14.09,5.004l-0.453-1.269l-2.029,0.725   L50.876,60.438z"/>
	<polygon points="49.349,48.826 47.563,43.802 44.979,44.716 46.766,49.739  "/>
</g>
</svg>