<svg xmlns="http://www.w3.org/2000/svg" xmlns:xlink="http://www.w3.org/1999/xlink" version="1.1" id="Your_Icon" x="0px" y="0px" width="100px" height="100px" viewBox="0 0 100 100" enable-background="new 0 0 100 100" xml:space="preserve">
<g>
	<path d="M50.831,52.354c9.815,0,17.763-7.952,17.763-17.762c0-9.806-7.947-17.752-17.763-17.752c-9.8,0-17.742,7.946-17.742,17.752   C33.089,44.402,41.031,52.354,50.831,52.354z M42.801,23.884c0-1.141,0.755-1.619,1.781-1.026L63.096,33.55   c1.021,0.587,1.021,1.509,0,2.103L44.582,46.328c-1.025,0.548-1.781,0.12-1.781-1.071V23.884z"/>
	<path d="M0,0v65.371h100V0H0z M95.756,61.785H4.244V3.587h91.512V61.785z"/>
</g>
<path d="M94,73.961H27.763c-0.545-3.069-3.226-5.408-6.449-5.408c-3.221,0-5.903,2.339-6.449,5.408H4.333v2.298h10.532  c0.545,3.069,3.227,5.407,6.449,5.407c3.222,0,5.904-2.338,6.449-5.407H94V73.961z"/>
</svg>