<svg xmlns="http://www.w3.org/2000/svg" xmlns:xlink="http://www.w3.org/1999/xlink" version="1.1" id="Layer_1" x="0px" y="0px" width="100px" height="100px" viewBox="0 0 100 100" enable-background="new 0 0 100 100" xml:space="preserve">
<path d="M78.3,17.686c0.292-0.39,0.578-0.808,0.842-1.272c1.392-2.446,1.715-4.886,0.722-5.452l-8.861-5.038  c-0.992-0.562-2.923,0.962-4.313,3.409c-0.213,0.375-0.392,0.746-0.555,1.114c-3.128-1.254-6.423-2.181-9.847-2.715  c0.058-0.469,0.098-0.956,0.098-1.47c0-2.814-0.926-5.095-2.066-5.096H44.125c-1.142,0-2.066,2.281-2.066,5.096  c0,0.515,0.041,1.001,0.098,1.47c-3.725,0.582-7.302,1.613-10.673,3.042c-0.19-0.472-0.412-0.954-0.688-1.44  c-1.391-2.447-3.322-3.972-4.314-3.409l-8.861,5.038c-0.994,0.565-0.671,3.005,0.721,5.452c0.38,0.668,0.801,1.259,1.232,1.767  C9.821,26.549,3.625,38.95,3.625,52.778c0,25.143,20.454,45.597,45.597,45.597c25.142,0,45.597-20.454,45.597-45.597  C94.818,38.679,88.384,26.056,78.3,17.686z M49.222,92.865c-22.104,0-40.086-17.982-40.086-40.087  c0-22.104,17.983-40.086,40.086-40.086s40.086,17.983,40.086,40.086C89.308,74.883,71.325,92.865,49.222,92.865z"/>
<rect x="75.119" y="51.677" width="9.552" height="2.204"/>
<rect x="15.017" y="51.677" width="9.551" height="2.204"/>
<rect x="74.145" y="32.978" transform="matrix(0.5001 0.866 -0.866 0.5001 70.31 -46.2892)" width="2.205" height="9.551"/>
<rect x="22.095" y="63.028" transform="matrix(-0.4999 -0.8661 0.8661 -0.4999 -23.9292 121.7915)" width="2.204" height="9.552"/>
<rect x="63.145" y="21.977" transform="matrix(-0.8661 -0.4999 0.4999 -0.8661 106.5149 82.0416)" width="2.204" height="9.552"/>
<rect x="33.093" y="74.027" transform="matrix(-0.866 -0.5001 0.5001 -0.866 24.3992 164.1446)" width="2.205" height="9.552"/>
<rect x="47.809" y="18.489" width="2.204" height="9.551"/>
<rect x="47.809" y="78.592" width="2.204" height="9.551"/>
<rect x="59.471" y="77.702" transform="matrix(-0.5 -0.866 0.866 -0.5 28.1221 173.845)" width="9.551" height="2.205"/>
<rect x="29.42" y="25.652" transform="matrix(0.4999 0.8661 -0.8661 0.4999 40.2725 -16.2369)" width="9.552" height="2.204"/>
<rect x="70.16" y="66.164" transform="matrix(-0.8661 -0.4999 0.4999 -0.8661 106.2072 162.9855)" width="9.551" height="2.205"/>
<path d="M57.644,21.961c-1.42-0.409-3.059,0.961-3.663,3.058l-7.445,25.903l-16.74-16.74c-1.398-1.398-3.372-1.693-4.408-0.657  c-0.958,0.958-0.766,2.711,0.371,4.076l-6.458-3.729l-1.102,1.909l8.271,4.776l0.804-1.394l17.952,17.951  c0.502,0.503,1.08,0.857,1.661,1.063c0.101,0.051,0.198,0.108,0.307,0.14c0.218,0.062,0.44,0.071,0.663,0.055  c0.686,0.037,1.323-0.147,1.777-0.601c0.281-0.281,0.455-0.634,0.545-1.022c0.283-0.436,0.519-0.935,0.678-1.49l8.268-28.763  C59.729,24.4,59.064,22.369,57.644,21.961z"/>
</svg>